<?xml version="1.0" standalone="no"?>
<!DOCTYPE svg PUBLIC "-//W3C//DTD SVG 20010904//EN"
 "http://www.w3.org/TR/2001/REC-SVG-20010904/DTD/svg10.dtd">
<svg version="1.0" xmlns="http://www.w3.org/2000/svg"
 width="367.000000pt" height="367.000000pt" viewBox="0 0 367.000000 367.000000"
 preserveAspectRatio="xMidYMid meet">
<metadata>
Created by potrace 1.14, written by Peter Selinger 2001-2017
</metadata>
<g transform="translate(0.000000,367.000000) scale(0.100000,-0.100000)"
fill="#000000" stroke="none">
<path d="M2812 2827 l-32 -33 203 -201 c220 -220 201 -208 249 -147 17 21 15
24 -178 218 -108 108 -199 196 -203 196 -4 0 -21 -15 -39 -33z"/>
<path d="M1850 2839 c-74 -3 -152 -11 -172 -18 -45 -14 -86 -46 -303 -239
l-170 -151 -225 -1 c-245 0 -304 -9 -405 -56 -122 -58 -189 -161 -210 -322 -7
-53 -11 -100 -8 -104 2 -5 315 -8 694 -8 796 0 757 -6 579 93 -58 33 -142 81
-188 107 l-83 48 133 75 c73 41 158 89 189 106 51 29 57 35 73 88 35 113 127
257 217 338 24 22 44 41 44 44 0 6 -20 6 -165 0z"/>
<path d="M2126 2803 c-16 -4 -9 -14 39 -63 63 -63 62 -60 35 -161 -10 -35 -13
-37 -75 -53 l-66 -16 -35 26 c-19 15 -44 40 -55 55 -11 16 -25 29 -30 29 -5 0
-9 -30 -9 -67 0 -87 36 -155 106 -202 55 -36 94 -45 169 -39 l54 5 67 -68 67
-68 79 71 c43 39 78 75 78 80 0 5 -28 39 -62 75 l-63 65 0 76 c0 60 -6 87 -23
119 -25 49 -80 102 -122 119 -33 14 -127 25 -154 17z"/>
<path d="M2732 2738 c-7 -7 -12 -15 -12 -20 0 -8 280 -293 346 -352 43 -37 74
-40 74 -7 0 17 -368 391 -386 391 -5 0 -15 -5 -22 -12z"/>
<path d="M2592 2607 c-45 -45 -82 -87 -82 -93 0 -5 17 -26 38 -46 29 -28 48
-38 87 -43 88 -11 89 -17 5 -98 -170 -164 -308 -287 -321 -287 -8 0 -31 -5
-52 -11 -38 -10 -38 -11 -21 -30 13 -15 25 -18 46 -14 40 9 93 -43 85 -83 -4
-21 -1 -31 14 -40 22 -14 24 -12 36 50 8 36 44 78 289 341 71 75 73 77 85 55
7 -12 12 -41 13 -65 0 -37 6 -49 43 -85 l43 -42 90 89 90 90 -197 197 c-109
109 -200 198 -203 198 -3 0 -42 -37 -88 -83z m261 -158 c28 -44 -25 -95 -72
-69 -24 12 -29 58 -9 78 17 17 68 11 81 -9z"/>
<path d="M2642 2082 l-71 -78 118 -118 117 -117 45 35 c39 29 80 74 102 113 8
12 -211 243 -230 243 -6 0 -43 -35 -81 -78z"/>
<path d="M2196 1972 c-3 -5 -8 -23 -11 -40 -14 -84 79 -163 159 -132 23 9 26
13 16 25 -7 8 -29 15 -49 15 -50 0 -85 36 -79 79 5 31 -24 73 -36 53z"/>
<path d="M346 1864 c-3 -9 -6 -38 -6 -64 0 -38 5 -54 22 -70 20 -18 35 -20
158 -20 101 0 141 -4 156 -14 11 -8 35 -44 54 -81 37 -73 86 -122 165 -163 45
-24 61 -27 150 -27 82 0 109 4 147 22 71 32 144 106 179 180 21 43 39 67 55
74 14 5 115 9 225 9 109 0 199 2 199 5 0 3 -11 23 -25 45 -14 22 -32 58 -41
80 l-16 40 -708 0 c-636 0 -708 -2 -714 -16z"/>
<path d="M2504 1220 c-68 -21 -111 -100 -101 -186 10 -97 63 -144 161 -144
110 0 156 51 156 172 0 69 -20 115 -63 143 -30 20 -112 27 -153 15z m106 -85
c15 -18 24 -86 16 -119 -14 -55 -68 -74 -106 -36 -26 26 -28 124 -3 152 20 22
76 24 93 3z"/>
<path d="M660 1213 c0 -4 24 -78 52 -165 l53 -158 51 0 52 0 51 153 c28 83 51
158 51 165 0 9 -14 12 -47 10 l-47 -3 -30 -113 -29 -112 -28 107 c-16 60 -29
111 -29 116 0 9 -100 9 -100 0z"/>
<path d="M1150 1055 l0 -165 45 0 45 0 0 55 c0 52 1 55 25 55 91 0 149 85 113
165 -18 41 -57 55 -148 55 l-80 0 0 -165z m148 69 c3 -24 -21 -54 -44 -54 -10
0 -14 12 -14 41 0 38 1 40 28 37 19 -2 28 -9 30 -24z"/>
<path d="M1466 1068 c-27 -84 -51 -159 -53 -165 -4 -9 9 -13 45 -13 48 0 51 1
57 30 7 31 8 31 63 28 51 -3 57 -5 62 -28 5 -22 12 -25 53 -28 26 -2 47 0 47
3 0 4 -23 78 -51 166 l-51 159 -62 0 -62 0 -48 -152z m139 -6 c6 -31 6 -32
-28 -32 l-34 0 15 66 16 66 12 -34 c6 -19 15 -48 19 -66z"/>
<path d="M1780 1055 l0 -165 45 0 45 0 0 60 c0 79 19 79 62 0 l33 -60 53 0 53
0 -50 70 -49 71 23 24 c32 31 40 68 24 106 -17 43 -61 59 -159 59 l-80 0 0
-165z m140 95 c15 0 22 -40 10 -55 -7 -8 -23 -15 -36 -15 -21 0 -24 5 -24 33
0 38 8 50 28 42 7 -3 17 -5 22 -5z"/>
<path d="M2100 1056 l0 -166 45 0 45 0 0 60 c0 78 15 78 58 0 l33 -60 50 0
c37 0 48 3 43 13 -4 6 -25 38 -46 70 l-39 58 25 30 c34 40 34 88 2 126 -23 26
-29 28 -120 31 l-96 4 0 -166z m134 91 c28 -20 18 -61 -16 -65 -27 -3 -28 -1
-28 37 0 44 12 51 44 28z"/>
<path d="M2760 1185 c0 -34 1 -35 40 -35 l40 0 0 -130 0 -130 45 0 45 0 0 130
0 130 40 0 c39 0 40 1 40 35 l0 35 -125 0 -125 0 0 -35z"/>
<path d="M1010 956 c-6 -8 -10 -25 -8 -38 3 -20 9 -23 43 -23 34 0 40 3 43 23
4 30 -14 52 -43 52 -12 0 -28 -7 -35 -14z"/>
<path d="M1605 730 c-3 -6 1 -7 9 -4 18 7 21 14 7 14 -6 0 -13 -4 -16 -10z"/>
<path d="M1730 716 c0 -2 7 -7 16 -10 8 -3 12 -2 9 4 -6 10 -25 14 -25 6z"/>
<path d="M1978 702 c9 -10 19 -17 21 -16 6 5 -20 34 -30 34 -5 0 -1 -8 9 -18z"/>
<path d="M1590 689 c0 -13 5 -31 10 -39 7 -11 8 -5 4 20 -8 43 -14 51 -14 19z"/>
<path d="M1790 691 c0 -25 6 -27 13 -6 4 8 2 17 -3 20 -6 4 -10 -3 -10 -14z"/>
<path d="M1944 685 c1 -12 9 -21 21 -22 14 -1 15 0 3 3 -9 3 -19 13 -21 22 -3
12 -4 11 -3 -3z"/>
<path d="M2077 694 c5 -14 1 -16 -25 -12 -25 3 -32 1 -32 -12 0 -22 20 -40 45
-39 17 1 17 2 -4 8 -37 10 -38 31 -2 31 31 0 43 21 21 35 -6 4 -7 -1 -3 -11z"/>
<path d="M1640 686 c0 -2 9 -6 20 -9 11 -3 20 -1 20 4 0 5 -9 9 -20 9 -11 0
-20 -2 -20 -4z"/>
<path d="M1743 683 c-26 -5 -47 -28 -38 -43 3 -5 20 -9 36 -8 25 2 29 6 29 30
0 15 -1 27 -2 27 -2 -1 -13 -4 -25 -6z m15 -25 c-5 -15 -48 -24 -48 -10 0 14
12 22 33 22 10 0 17 -5 15 -12z"/>
<path d="M1878 673 c6 -2 18 -2 25 0 6 3 1 5 -13 5 -14 0 -19 -2 -12 -5z"/>
<path d="M1854 650 c1 -18 34 -26 48 -12 6 6 1 8 -15 5 -16 -3 -27 0 -30 9 -3
9 -4 9 -3 -2z"/>
<path d="M1633 633 c9 -2 25 -2 35 0 9 3 1 5 -18 5 -19 0 -27 -2 -17 -5z"/>
<path d="M1973 633 c29 -5 33 -12 17 -31 -5 -7 -3 -6 6 2 22 19 9 36 -24 35
l-27 -2 28 -4z"/>
<path d="M1931 614 c0 -11 3 -14 6 -6 3 7 2 16 -1 19 -3 4 -6 -2 -5 -13z"/>
</g>
</svg>
